<mxfile host="Electron" agent="Mozilla/5.0 (Windows NT 10.0; Win64; x64) AppleWebKit/537.36 (KHTML, like Gecko) draw.io/24.7.17 Chrome/128.0.6613.36 Electron/32.0.1 Safari/537.36" version="24.7.17">
  <diagram name="第 1 页" id="zHqoGz7Wv1w7LbTlSXfK">
    <mxGraphModel dx="1037" dy="704" grid="1" gridSize="10" guides="1" tooltips="1" connect="1" arrows="1" fold="1" page="1" pageScale="1" pageWidth="827" pageHeight="1169" math="0" shadow="0">
      <root>
        <mxCell id="0" />
        <mxCell id="1" parent="0" />
        <mxCell id="NZ2SatmOXx5t-zUzV57u-1" value="" style="rounded=0;whiteSpace=wrap;html=1;" vertex="1" parent="1">
          <mxGeometry x="190" y="160" width="30" height="100" as="geometry" />
        </mxCell>
        <mxCell id="NZ2SatmOXx5t-zUzV57u-2" value="" style="rounded=0;whiteSpace=wrap;html=1;" vertex="1" parent="1">
          <mxGeometry x="220" y="160" width="30" height="100" as="geometry" />
        </mxCell>
        <mxCell id="NZ2SatmOXx5t-zUzV57u-3" value="" style="rounded=0;whiteSpace=wrap;html=1;" vertex="1" parent="1">
          <mxGeometry x="250" y="160" width="30" height="100" as="geometry" />
        </mxCell>
        <mxCell id="NZ2SatmOXx5t-zUzV57u-4" value="" style="rounded=0;whiteSpace=wrap;html=1;" vertex="1" parent="1">
          <mxGeometry x="280" y="160" width="30" height="100" as="geometry" />
        </mxCell>
        <mxCell id="NZ2SatmOXx5t-zUzV57u-5" value="" style="rounded=0;whiteSpace=wrap;html=1;" vertex="1" parent="1">
          <mxGeometry x="310" y="160" width="30" height="100" as="geometry" />
        </mxCell>
        <mxCell id="NZ2SatmOXx5t-zUzV57u-6" value="" style="rounded=0;whiteSpace=wrap;html=1;" vertex="1" parent="1">
          <mxGeometry x="340" y="160" width="30" height="100" as="geometry" />
        </mxCell>
        <mxCell id="NZ2SatmOXx5t-zUzV57u-7" value="" style="rounded=0;whiteSpace=wrap;html=1;" vertex="1" parent="1">
          <mxGeometry x="370" y="160" width="30" height="100" as="geometry" />
        </mxCell>
        <mxCell id="NZ2SatmOXx5t-zUzV57u-8" value="" style="rounded=0;whiteSpace=wrap;html=1;" vertex="1" parent="1">
          <mxGeometry x="400" y="160" width="30" height="100" as="geometry" />
        </mxCell>
        <mxCell id="NZ2SatmOXx5t-zUzV57u-9" value="" style="rounded=0;whiteSpace=wrap;html=1;" vertex="1" parent="1">
          <mxGeometry x="430" y="160" width="30" height="100" as="geometry" />
        </mxCell>
        <mxCell id="NZ2SatmOXx5t-zUzV57u-10" value="" style="rounded=0;whiteSpace=wrap;html=1;" vertex="1" parent="1">
          <mxGeometry x="460" y="160" width="30" height="100" as="geometry" />
        </mxCell>
        <mxCell id="NZ2SatmOXx5t-zUzV57u-11" value="" style="rounded=0;whiteSpace=wrap;html=1;" vertex="1" parent="1">
          <mxGeometry x="490" y="160" width="30" height="100" as="geometry" />
        </mxCell>
        <mxCell id="NZ2SatmOXx5t-zUzV57u-12" value="" style="rounded=0;whiteSpace=wrap;html=1;" vertex="1" parent="1">
          <mxGeometry x="520" y="160" width="30" height="100" as="geometry" />
        </mxCell>
        <mxCell id="NZ2SatmOXx5t-zUzV57u-14" value="" style="html=1;shadow=0;dashed=0;align=center;verticalAlign=middle;shape=mxgraph.arrows2.arrow;dy=0.6;dx=40;direction=south;notch=0;" vertex="1" parent="1">
          <mxGeometry x="185" y="60" width="40" height="100" as="geometry" />
        </mxCell>
        <mxCell id="NZ2SatmOXx5t-zUzV57u-15" value="&lt;font style=&quot;font-size: 18px;&quot;&gt;position&lt;/font&gt;" style="text;html=1;align=center;verticalAlign=middle;resizable=0;points=[];autosize=1;strokeColor=none;fillColor=none;" vertex="1" parent="1">
          <mxGeometry x="165" y="15" width="90" height="40" as="geometry" />
        </mxCell>
        <mxCell id="NZ2SatmOXx5t-zUzV57u-16" value="" style="html=1;shadow=0;dashed=0;align=center;verticalAlign=middle;shape=mxgraph.arrows2.arrow;dy=0.6;dx=40;direction=south;notch=0;" vertex="1" parent="1">
          <mxGeometry x="515" y="60" width="40" height="100" as="geometry" />
        </mxCell>
        <mxCell id="NZ2SatmOXx5t-zUzV57u-17" value="&lt;font style=&quot;font-size: 18px;&quot;&gt;limit写入限制&lt;/font&gt;" style="text;html=1;align=center;verticalAlign=middle;resizable=0;points=[];autosize=1;strokeColor=none;fillColor=none;" vertex="1" parent="1">
          <mxGeometry x="470" y="15" width="130" height="40" as="geometry" />
        </mxCell>
        <mxCell id="NZ2SatmOXx5t-zUzV57u-19" value="" style="html=1;shadow=0;dashed=0;align=center;verticalAlign=middle;shape=mxgraph.arrows2.arrow;dy=0.6;dx=40;direction=south;notch=0;rotation=45;" vertex="1" parent="1">
          <mxGeometry x="555" y="80" width="40" height="100" as="geometry" />
        </mxCell>
        <mxCell id="NZ2SatmOXx5t-zUzV57u-20" value="&lt;font style=&quot;font-size: 18px;&quot;&gt;capacity 容量&lt;/font&gt;" style="text;html=1;align=center;verticalAlign=middle;resizable=0;points=[];autosize=1;strokeColor=none;fillColor=none;" vertex="1" parent="1">
          <mxGeometry x="570" y="55" width="130" height="40" as="geometry" />
        </mxCell>
        <mxCell id="NZ2SatmOXx5t-zUzV57u-22" value="1" style="rounded=0;whiteSpace=wrap;html=1;" vertex="1" parent="1">
          <mxGeometry x="204.5" y="485" width="27.5" height="100" as="geometry" />
        </mxCell>
        <mxCell id="NZ2SatmOXx5t-zUzV57u-23" value="2" style="rounded=0;whiteSpace=wrap;html=1;" vertex="1" parent="1">
          <mxGeometry x="232.5" y="485" width="30" height="100" as="geometry" />
        </mxCell>
        <mxCell id="NZ2SatmOXx5t-zUzV57u-24" value="3" style="rounded=0;whiteSpace=wrap;html=1;" vertex="1" parent="1">
          <mxGeometry x="262.5" y="485" width="30" height="100" as="geometry" />
        </mxCell>
        <mxCell id="NZ2SatmOXx5t-zUzV57u-25" value="4" style="rounded=0;whiteSpace=wrap;html=1;" vertex="1" parent="1">
          <mxGeometry x="292.5" y="485" width="30" height="100" as="geometry" />
        </mxCell>
        <mxCell id="NZ2SatmOXx5t-zUzV57u-26" value="" style="rounded=0;whiteSpace=wrap;html=1;" vertex="1" parent="1">
          <mxGeometry x="322.5" y="485" width="30" height="100" as="geometry" />
        </mxCell>
        <mxCell id="NZ2SatmOXx5t-zUzV57u-27" value="" style="rounded=0;whiteSpace=wrap;html=1;" vertex="1" parent="1">
          <mxGeometry x="352.5" y="485" width="30" height="100" as="geometry" />
        </mxCell>
        <mxCell id="NZ2SatmOXx5t-zUzV57u-28" value="" style="rounded=0;whiteSpace=wrap;html=1;" vertex="1" parent="1">
          <mxGeometry x="382.5" y="485" width="30" height="100" as="geometry" />
        </mxCell>
        <mxCell id="NZ2SatmOXx5t-zUzV57u-29" value="" style="rounded=0;whiteSpace=wrap;html=1;" vertex="1" parent="1">
          <mxGeometry x="412.5" y="485" width="30" height="100" as="geometry" />
        </mxCell>
        <mxCell id="NZ2SatmOXx5t-zUzV57u-30" value="" style="rounded=0;whiteSpace=wrap;html=1;" vertex="1" parent="1">
          <mxGeometry x="442.5" y="485" width="30" height="100" as="geometry" />
        </mxCell>
        <mxCell id="NZ2SatmOXx5t-zUzV57u-31" value="" style="rounded=0;whiteSpace=wrap;html=1;" vertex="1" parent="1">
          <mxGeometry x="472.5" y="485" width="30" height="100" as="geometry" />
        </mxCell>
        <mxCell id="NZ2SatmOXx5t-zUzV57u-32" value="" style="rounded=0;whiteSpace=wrap;html=1;" vertex="1" parent="1">
          <mxGeometry x="502.5" y="485" width="30" height="100" as="geometry" />
        </mxCell>
        <mxCell id="NZ2SatmOXx5t-zUzV57u-33" value="" style="rounded=0;whiteSpace=wrap;html=1;" vertex="1" parent="1">
          <mxGeometry x="532.5" y="485" width="30" height="100" as="geometry" />
        </mxCell>
        <mxCell id="NZ2SatmOXx5t-zUzV57u-34" value="" style="html=1;shadow=0;dashed=0;align=center;verticalAlign=middle;shape=mxgraph.arrows2.arrow;dy=0.6;dx=40;direction=south;notch=0;" vertex="1" parent="1">
          <mxGeometry x="290" y="385" width="40" height="100" as="geometry" />
        </mxCell>
        <mxCell id="NZ2SatmOXx5t-zUzV57u-35" value="&lt;font style=&quot;font-size: 18px;&quot;&gt;position&lt;/font&gt;" style="text;html=1;align=center;verticalAlign=middle;resizable=0;points=[];autosize=1;strokeColor=none;fillColor=none;" vertex="1" parent="1">
          <mxGeometry x="270" y="340" width="90" height="40" as="geometry" />
        </mxCell>
        <mxCell id="NZ2SatmOXx5t-zUzV57u-36" value="" style="html=1;shadow=0;dashed=0;align=center;verticalAlign=middle;shape=mxgraph.arrows2.arrow;dy=0.6;dx=40;direction=south;notch=0;" vertex="1" parent="1">
          <mxGeometry x="527.5" y="385" width="40" height="100" as="geometry" />
        </mxCell>
        <mxCell id="NZ2SatmOXx5t-zUzV57u-37" value="&lt;font style=&quot;font-size: 18px;&quot;&gt;limit写入限制&lt;/font&gt;" style="text;html=1;align=center;verticalAlign=middle;resizable=0;points=[];autosize=1;strokeColor=none;fillColor=none;" vertex="1" parent="1">
          <mxGeometry x="482.5" y="340" width="130" height="40" as="geometry" />
        </mxCell>
        <mxCell id="NZ2SatmOXx5t-zUzV57u-38" value="" style="html=1;shadow=0;dashed=0;align=center;verticalAlign=middle;shape=mxgraph.arrows2.arrow;dy=0.6;dx=40;direction=south;notch=0;rotation=45;" vertex="1" parent="1">
          <mxGeometry x="567.5" y="405" width="40" height="100" as="geometry" />
        </mxCell>
        <mxCell id="NZ2SatmOXx5t-zUzV57u-39" value="&lt;font style=&quot;font-size: 18px;&quot;&gt;capacity 容量&lt;/font&gt;" style="text;html=1;align=center;verticalAlign=middle;resizable=0;points=[];autosize=1;strokeColor=none;fillColor=none;" vertex="1" parent="1">
          <mxGeometry x="582.5" y="380" width="130" height="40" as="geometry" />
        </mxCell>
        <mxCell id="NZ2SatmOXx5t-zUzV57u-41" value="1" style="rounded=0;whiteSpace=wrap;html=1;" vertex="1" parent="1">
          <mxGeometry x="143.5" y="865" width="27.5" height="100" as="geometry" />
        </mxCell>
        <mxCell id="NZ2SatmOXx5t-zUzV57u-42" value="2" style="rounded=0;whiteSpace=wrap;html=1;" vertex="1" parent="1">
          <mxGeometry x="171.5" y="865" width="30" height="100" as="geometry" />
        </mxCell>
        <mxCell id="NZ2SatmOXx5t-zUzV57u-43" value="3" style="rounded=0;whiteSpace=wrap;html=1;" vertex="1" parent="1">
          <mxGeometry x="201.5" y="865" width="30" height="100" as="geometry" />
        </mxCell>
        <mxCell id="NZ2SatmOXx5t-zUzV57u-44" value="4" style="rounded=0;whiteSpace=wrap;html=1;" vertex="1" parent="1">
          <mxGeometry x="231.5" y="865" width="30" height="100" as="geometry" />
        </mxCell>
        <mxCell id="NZ2SatmOXx5t-zUzV57u-45" value="" style="rounded=0;whiteSpace=wrap;html=1;" vertex="1" parent="1">
          <mxGeometry x="261.5" y="865" width="30" height="100" as="geometry" />
        </mxCell>
        <mxCell id="NZ2SatmOXx5t-zUzV57u-46" value="" style="rounded=0;whiteSpace=wrap;html=1;" vertex="1" parent="1">
          <mxGeometry x="291.5" y="865" width="30" height="100" as="geometry" />
        </mxCell>
        <mxCell id="NZ2SatmOXx5t-zUzV57u-47" value="" style="rounded=0;whiteSpace=wrap;html=1;" vertex="1" parent="1">
          <mxGeometry x="321.5" y="865" width="30" height="100" as="geometry" />
        </mxCell>
        <mxCell id="NZ2SatmOXx5t-zUzV57u-48" value="" style="rounded=0;whiteSpace=wrap;html=1;" vertex="1" parent="1">
          <mxGeometry x="351.5" y="865" width="30" height="100" as="geometry" />
        </mxCell>
        <mxCell id="NZ2SatmOXx5t-zUzV57u-49" value="" style="rounded=0;whiteSpace=wrap;html=1;" vertex="1" parent="1">
          <mxGeometry x="381.5" y="865" width="30" height="100" as="geometry" />
        </mxCell>
        <mxCell id="NZ2SatmOXx5t-zUzV57u-50" value="" style="rounded=0;whiteSpace=wrap;html=1;" vertex="1" parent="1">
          <mxGeometry x="411.5" y="865" width="30" height="100" as="geometry" />
        </mxCell>
        <mxCell id="NZ2SatmOXx5t-zUzV57u-51" value="" style="rounded=0;whiteSpace=wrap;html=1;" vertex="1" parent="1">
          <mxGeometry x="441.5" y="865" width="30" height="100" as="geometry" />
        </mxCell>
        <mxCell id="NZ2SatmOXx5t-zUzV57u-52" value="" style="rounded=0;whiteSpace=wrap;html=1;" vertex="1" parent="1">
          <mxGeometry x="471.5" y="865" width="30" height="100" as="geometry" />
        </mxCell>
        <mxCell id="NZ2SatmOXx5t-zUzV57u-53" value="" style="html=1;shadow=0;dashed=0;align=center;verticalAlign=middle;shape=mxgraph.arrows2.arrow;dy=0.6;dx=40;direction=south;notch=0;" vertex="1" parent="1">
          <mxGeometry x="134.5" y="765" width="40" height="100" as="geometry" />
        </mxCell>
        <mxCell id="NZ2SatmOXx5t-zUzV57u-54" value="&lt;font style=&quot;font-size: 18px;&quot;&gt;position&lt;/font&gt;" style="text;html=1;align=center;verticalAlign=middle;resizable=0;points=[];autosize=1;strokeColor=none;fillColor=none;" vertex="1" parent="1">
          <mxGeometry x="114.5" y="720" width="90" height="40" as="geometry" />
        </mxCell>
        <mxCell id="NZ2SatmOXx5t-zUzV57u-55" value="" style="html=1;shadow=0;dashed=0;align=center;verticalAlign=middle;shape=mxgraph.arrows2.arrow;dy=0.6;dx=40;direction=south;notch=0;" vertex="1" parent="1">
          <mxGeometry x="230" y="765" width="40" height="100" as="geometry" />
        </mxCell>
        <mxCell id="NZ2SatmOXx5t-zUzV57u-56" value="&lt;font style=&quot;font-size: 18px;&quot;&gt;limit写入限制&lt;/font&gt;" style="text;html=1;align=center;verticalAlign=middle;resizable=0;points=[];autosize=1;strokeColor=none;fillColor=none;" vertex="1" parent="1">
          <mxGeometry x="185" y="720" width="130" height="40" as="geometry" />
        </mxCell>
        <mxCell id="NZ2SatmOXx5t-zUzV57u-57" value="" style="html=1;shadow=0;dashed=0;align=center;verticalAlign=middle;shape=mxgraph.arrows2.arrow;dy=0.6;dx=40;direction=south;notch=0;rotation=45;" vertex="1" parent="1">
          <mxGeometry x="506.5" y="785" width="40" height="100" as="geometry" />
        </mxCell>
        <mxCell id="NZ2SatmOXx5t-zUzV57u-58" value="&lt;font style=&quot;font-size: 18px;&quot;&gt;capacity 容量&lt;/font&gt;" style="text;html=1;align=center;verticalAlign=middle;resizable=0;points=[];autosize=1;strokeColor=none;fillColor=none;" vertex="1" parent="1">
          <mxGeometry x="521.5" y="760" width="130" height="40" as="geometry" />
        </mxCell>
        <mxCell id="NZ2SatmOXx5t-zUzV57u-59" value="1" style="rounded=0;whiteSpace=wrap;html=1;" vertex="1" parent="1">
          <mxGeometry x="157" y="1185" width="27.5" height="100" as="geometry" />
        </mxCell>
        <mxCell id="NZ2SatmOXx5t-zUzV57u-60" value="2" style="rounded=0;whiteSpace=wrap;html=1;" vertex="1" parent="1">
          <mxGeometry x="185" y="1185" width="30" height="100" as="geometry" />
        </mxCell>
        <mxCell id="NZ2SatmOXx5t-zUzV57u-61" value="3" style="rounded=0;whiteSpace=wrap;html=1;" vertex="1" parent="1">
          <mxGeometry x="215" y="1185" width="30" height="100" as="geometry" />
        </mxCell>
        <mxCell id="NZ2SatmOXx5t-zUzV57u-62" value="4" style="rounded=0;whiteSpace=wrap;html=1;" vertex="1" parent="1">
          <mxGeometry x="245" y="1185" width="30" height="100" as="geometry" />
        </mxCell>
        <mxCell id="NZ2SatmOXx5t-zUzV57u-63" value="" style="rounded=0;whiteSpace=wrap;html=1;" vertex="1" parent="1">
          <mxGeometry x="275" y="1185" width="30" height="100" as="geometry" />
        </mxCell>
        <mxCell id="NZ2SatmOXx5t-zUzV57u-64" value="" style="rounded=0;whiteSpace=wrap;html=1;" vertex="1" parent="1">
          <mxGeometry x="305" y="1185" width="30" height="100" as="geometry" />
        </mxCell>
        <mxCell id="NZ2SatmOXx5t-zUzV57u-65" value="" style="rounded=0;whiteSpace=wrap;html=1;" vertex="1" parent="1">
          <mxGeometry x="335" y="1185" width="30" height="100" as="geometry" />
        </mxCell>
        <mxCell id="NZ2SatmOXx5t-zUzV57u-66" value="" style="rounded=0;whiteSpace=wrap;html=1;" vertex="1" parent="1">
          <mxGeometry x="365" y="1185" width="30" height="100" as="geometry" />
        </mxCell>
        <mxCell id="NZ2SatmOXx5t-zUzV57u-67" value="" style="rounded=0;whiteSpace=wrap;html=1;" vertex="1" parent="1">
          <mxGeometry x="395" y="1185" width="30" height="100" as="geometry" />
        </mxCell>
        <mxCell id="NZ2SatmOXx5t-zUzV57u-68" value="" style="rounded=0;whiteSpace=wrap;html=1;" vertex="1" parent="1">
          <mxGeometry x="425" y="1185" width="30" height="100" as="geometry" />
        </mxCell>
        <mxCell id="NZ2SatmOXx5t-zUzV57u-69" value="" style="rounded=0;whiteSpace=wrap;html=1;" vertex="1" parent="1">
          <mxGeometry x="455" y="1185" width="30" height="100" as="geometry" />
        </mxCell>
        <mxCell id="NZ2SatmOXx5t-zUzV57u-70" value="" style="rounded=0;whiteSpace=wrap;html=1;" vertex="1" parent="1">
          <mxGeometry x="485" y="1185" width="30" height="100" as="geometry" />
        </mxCell>
        <mxCell id="NZ2SatmOXx5t-zUzV57u-71" value="" style="html=1;shadow=0;dashed=0;align=center;verticalAlign=middle;shape=mxgraph.arrows2.arrow;dy=0.6;dx=40;direction=south;notch=0;" vertex="1" parent="1">
          <mxGeometry x="148" y="1085" width="40" height="100" as="geometry" />
        </mxCell>
        <mxCell id="NZ2SatmOXx5t-zUzV57u-72" value="&lt;font style=&quot;font-size: 18px;&quot;&gt;position&lt;/font&gt;" style="text;html=1;align=center;verticalAlign=middle;resizable=0;points=[];autosize=1;strokeColor=none;fillColor=none;" vertex="1" parent="1">
          <mxGeometry x="128" y="1040" width="90" height="40" as="geometry" />
        </mxCell>
        <mxCell id="NZ2SatmOXx5t-zUzV57u-73" value="" style="html=1;shadow=0;dashed=0;align=center;verticalAlign=middle;shape=mxgraph.arrows2.arrow;dy=0.6;dx=40;direction=south;notch=0;" vertex="1" parent="1">
          <mxGeometry x="243.5" y="1085" width="40" height="100" as="geometry" />
        </mxCell>
        <mxCell id="NZ2SatmOXx5t-zUzV57u-74" value="&lt;font style=&quot;font-size: 18px;&quot;&gt;limit写入限制&lt;/font&gt;" style="text;html=1;align=center;verticalAlign=middle;resizable=0;points=[];autosize=1;strokeColor=none;fillColor=none;" vertex="1" parent="1">
          <mxGeometry x="198.5" y="1040" width="130" height="40" as="geometry" />
        </mxCell>
        <mxCell id="NZ2SatmOXx5t-zUzV57u-75" value="" style="html=1;shadow=0;dashed=0;align=center;verticalAlign=middle;shape=mxgraph.arrows2.arrow;dy=0.6;dx=40;direction=south;notch=0;rotation=45;" vertex="1" parent="1">
          <mxGeometry x="520" y="1105" width="40" height="100" as="geometry" />
        </mxCell>
        <mxCell id="NZ2SatmOXx5t-zUzV57u-76" value="&lt;font style=&quot;font-size: 18px;&quot;&gt;capacity 容量&lt;/font&gt;" style="text;html=1;align=center;verticalAlign=middle;resizable=0;points=[];autosize=1;strokeColor=none;fillColor=none;" vertex="1" parent="1">
          <mxGeometry x="535" y="1080" width="130" height="40" as="geometry" />
        </mxCell>
        <mxCell id="NZ2SatmOXx5t-zUzV57u-95" value="1" style="rounded=0;whiteSpace=wrap;html=1;" vertex="1" parent="1">
          <mxGeometry x="52" y="1705" width="27.5" height="100" as="geometry" />
        </mxCell>
        <mxCell id="NZ2SatmOXx5t-zUzV57u-96" value="2" style="rounded=0;whiteSpace=wrap;html=1;" vertex="1" parent="1">
          <mxGeometry x="80" y="1705" width="30" height="100" as="geometry" />
        </mxCell>
        <mxCell id="NZ2SatmOXx5t-zUzV57u-97" value="3" style="rounded=0;whiteSpace=wrap;html=1;" vertex="1" parent="1">
          <mxGeometry x="110" y="1705" width="30" height="100" as="geometry" />
        </mxCell>
        <mxCell id="NZ2SatmOXx5t-zUzV57u-98" value="4" style="rounded=0;whiteSpace=wrap;html=1;" vertex="1" parent="1">
          <mxGeometry x="140" y="1705" width="30" height="100" as="geometry" />
        </mxCell>
        <mxCell id="NZ2SatmOXx5t-zUzV57u-99" value="" style="rounded=0;whiteSpace=wrap;html=1;" vertex="1" parent="1">
          <mxGeometry x="170" y="1705" width="30" height="100" as="geometry" />
        </mxCell>
        <mxCell id="NZ2SatmOXx5t-zUzV57u-100" value="" style="rounded=0;whiteSpace=wrap;html=1;" vertex="1" parent="1">
          <mxGeometry x="200" y="1705" width="30" height="100" as="geometry" />
        </mxCell>
        <mxCell id="NZ2SatmOXx5t-zUzV57u-101" value="" style="rounded=0;whiteSpace=wrap;html=1;" vertex="1" parent="1">
          <mxGeometry x="230" y="1705" width="30" height="100" as="geometry" />
        </mxCell>
        <mxCell id="NZ2SatmOXx5t-zUzV57u-102" value="" style="rounded=0;whiteSpace=wrap;html=1;" vertex="1" parent="1">
          <mxGeometry x="260" y="1705" width="30" height="100" as="geometry" />
        </mxCell>
        <mxCell id="NZ2SatmOXx5t-zUzV57u-103" value="" style="rounded=0;whiteSpace=wrap;html=1;" vertex="1" parent="1">
          <mxGeometry x="290" y="1705" width="30" height="100" as="geometry" />
        </mxCell>
        <mxCell id="NZ2SatmOXx5t-zUzV57u-104" value="" style="rounded=0;whiteSpace=wrap;html=1;" vertex="1" parent="1">
          <mxGeometry x="320" y="1705" width="30" height="100" as="geometry" />
        </mxCell>
        <mxCell id="NZ2SatmOXx5t-zUzV57u-105" value="" style="rounded=0;whiteSpace=wrap;html=1;" vertex="1" parent="1">
          <mxGeometry x="350" y="1705" width="30" height="100" as="geometry" />
        </mxCell>
        <mxCell id="NZ2SatmOXx5t-zUzV57u-106" value="" style="rounded=0;whiteSpace=wrap;html=1;" vertex="1" parent="1">
          <mxGeometry x="380" y="1705" width="30" height="100" as="geometry" />
        </mxCell>
        <mxCell id="NZ2SatmOXx5t-zUzV57u-107" value="" style="html=1;shadow=0;dashed=0;align=center;verticalAlign=middle;shape=mxgraph.arrows2.arrow;dy=0.6;dx=40;direction=south;notch=0;" vertex="1" parent="1">
          <mxGeometry x="74.5" y="1605" width="40" height="100" as="geometry" />
        </mxCell>
        <mxCell id="NZ2SatmOXx5t-zUzV57u-108" value="&lt;font style=&quot;font-size: 18px;&quot;&gt;position&lt;/font&gt;" style="text;html=1;align=center;verticalAlign=middle;resizable=0;points=[];autosize=1;strokeColor=none;fillColor=none;" vertex="1" parent="1">
          <mxGeometry x="44.5" y="1560" width="90" height="40" as="geometry" />
        </mxCell>
        <mxCell id="NZ2SatmOXx5t-zUzV57u-109" value="" style="html=1;shadow=0;dashed=0;align=center;verticalAlign=middle;shape=mxgraph.arrows2.arrow;dy=0.6;dx=40;direction=south;notch=0;" vertex="1" parent="1">
          <mxGeometry x="138.5" y="1605" width="40" height="100" as="geometry" />
        </mxCell>
        <mxCell id="NZ2SatmOXx5t-zUzV57u-110" value="&lt;font style=&quot;font-size: 18px;&quot;&gt;limit读取限制&lt;/font&gt;" style="text;html=1;align=center;verticalAlign=middle;resizable=0;points=[];autosize=1;strokeColor=none;fillColor=none;" vertex="1" parent="1">
          <mxGeometry x="93.5" y="1560" width="130" height="40" as="geometry" />
        </mxCell>
        <mxCell id="NZ2SatmOXx5t-zUzV57u-111" value="" style="html=1;shadow=0;dashed=0;align=center;verticalAlign=middle;shape=mxgraph.arrows2.arrow;dy=0.6;dx=40;direction=south;notch=0;rotation=45;" vertex="1" parent="1">
          <mxGeometry x="415" y="1625" width="40" height="100" as="geometry" />
        </mxCell>
        <mxCell id="NZ2SatmOXx5t-zUzV57u-112" value="&lt;font style=&quot;font-size: 18px;&quot;&gt;capacity 容量&lt;/font&gt;" style="text;html=1;align=center;verticalAlign=middle;resizable=0;points=[];autosize=1;strokeColor=none;fillColor=none;" vertex="1" parent="1">
          <mxGeometry x="430" y="1600" width="130" height="40" as="geometry" />
        </mxCell>
      </root>
    </mxGraphModel>
  </diagram>
</mxfile>
